<?xml version="1.0" encoding="utf-8"?>
<!-- Generator: Adobe Illustrator 24.0.2, SVG Export Plug-In . SVG Version: 6.00 Build 0)  -->
<svg version="1.1" id="a966dfac-cae6-4172-a83b-9370cd4b99d4"
	 xmlns="http://www.w3.org/2000/svg" xmlns:xlink="http://www.w3.org/1999/xlink" x="0px" y="0px" viewBox="0 0 811.2 695.9"
	 style="enable-background:new 0 0 811.2 695.9;" xml:space="preserve">
<style type="text/css">
	.st0{fill:#E6E6E6;}
	.st1{fill:#FFFFFF;}
	.st2{fill:#CCCCCC;}
	.st3{fill:#FCC102;}
	.st4{fill:#2F2E41;}
	.st5{fill:#FFB8B8;}
	.st6{fill:#00BFA6;}
</style>
<path class="st0" d="M798.7,547.6L425.4,673.8c-9.7,3.3-20.2-1.9-23.4-11.6L229,150.6c-3.3-9.7,1.9-20.2,11.6-23.4L613.9,1
	c9.7-3.3,20.2,1.9,23.4,11.6l172.9,511.6C813.5,533.8,808.3,544.3,798.7,547.6z"/>
<path class="st1" d="M789.1,538.2L427.2,660.5c-6.5,2.2-13.6-1.3-15.8-7.8L242.3,152.4c-2.2-6.5,1.3-13.6,7.8-15.8L612.1,14.3
	c6.5-2.2,13.6,1.3,15.8,7.8L797,522.3C799.2,528.8,795.7,535.9,789.1,538.2z"/>
<path class="st2" d="M698.2,694.4h-394c-10.2,0-18.5-8.3-18.5-18.5v-540c0-10.2,8.3-18.5,18.5-18.5h394c10.2,0,18.5,8.3,18.5,18.5
	v540C716.6,686.1,708.4,694.4,698.2,694.4z"/>
<path class="st1" d="M692.2,682.4h-382c-6.9,0-12.5-5.6-12.5-12.5v-528c0-6.9,5.6-12.5,12.5-12.5h382c6.9,0,12.5,5.6,12.5,12.5v528
	C704.6,676.8,699.1,682.4,692.2,682.4z"/>
<path class="st2" d="M610.8,279.1H358.5c-4.4,0-8-3.6-8-8s3.6-8,8-8h252.3c4.4,0,8,3.6,8,8S615.2,279.1,610.8,279.1z"/>
<path class="st2" d="M643.8,306.2H358.5c-4.4,0-8-3.6-8-8c0-4.4,3.6-8,8-8h285.4c4.4,0,8,3.6,8,8
	C651.8,302.6,648.3,306.2,643.8,306.2z"/>
<path class="st3" d="M610.8,400.4H358.5c-4.4,0-8-3.6-8-8c0-4.4,3.6-8,8-8h252.3c4.4,0,8,3.6,8,8
	C618.8,396.8,615.2,400.4,610.8,400.4z"/>
<path class="st2" d="M643.8,427.4H358.5c-4.4,0-8-3.6-8-8c0-4.4,3.6-8,8-8h285.4c4.4,0,8,3.6,8,8
	C651.8,423.8,648.3,427.4,643.8,427.4z"/>
<path class="st2" d="M610.8,521.6H358.5c-4.4,0-8-3.6-8-8c0-4.4,3.6-8,8-8h252.3c4.4,0,8,3.6,8,8C618.8,518,615.2,521.6,610.8,521.6
	z"/>
<path class="st2" d="M643.8,548.6H358.5c-4.4,0-8-3.6-8-8c0-4.4,3.6-8,8-8h285.4c4.4,0,8,3.6,8,8C651.8,545,648.3,548.6,643.8,548.6
	z"/>
<path class="st4" d="M204.5,370.6h-58c-2.5,0-4.5-2-4.5-4.5v-25c0-18.5,15-33.5,33.5-33.5c18.5,0,33.5,15,33.5,33.5l0,0v25
	C209,368.6,207,370.6,204.5,370.6z"/>
<path class="st5" d="M294,501.1c-5.5-0.3-9.8-5-9.5-10.6c0-0.6,0.1-1.2,0.2-1.8l-30.2-19.1l16.9-7.7l26.1,19.3
	c5.3,1.6,8.4,7.3,6.7,12.6C302.9,498.4,298.7,501.4,294,501.1z"/>
<path class="st4" d="M273.2,485.5c-1-0.1-2-0.5-2.8-1.1L187.2,420l-10.7-19.1c-2.1-3.8-1.8-8.4,0.9-11.8l0,0
	c3.6-4.6,10.3-5.4,14.9-1.7c0.2,0.2,0.4,0.3,0.6,0.5l92.7,75.2c2.5,1.7,3.1,5.1,1.5,7.5c0,0,0,0.1-0.1,0.1l-8.9,12.5
	c-0.9,1.2-2.2,2-3.6,2.2C274,485.6,273.6,485.6,273.2,485.5z"/>
<polygon class="st5" points="77.2,670.1 88.6,674.7 111.7,633 94.9,626.2 "/>
<path class="st4" d="M75.8,665.2l22.4,9.1l0,0c7.9,3.2,11.7,12.2,8.5,20c0,0,0,0,0,0l-0.2,0.5l-36.6-14.8L75.8,665.2z"/>
<polygon class="st5" points="209.6,682.9 221.9,682.9 227.7,635.6 209.6,635.6 "/>
<path class="st4" d="M206.5,678.9l24.1,0h0c8.5,0,15.4,6.9,15.4,15.4c0,0,0,0,0,0v0.5l-39.5,0L206.5,678.9z"/>
<path class="st4" d="M219.7,656.1c-4.9,0-9.6-2-12.3-3.3c-1.4-0.7-2.4-2-2.7-3.5L178.9,519l-67,125.4c-0.6,1.1-1.6,2-2.8,2.4
	c-14.4,4.8-22.3-2.8-25-6.3c-1.1-1.5-1.3-3.4-0.6-5.1l31-67.5l18.8-64.1l19-46.9l0.4,0l63.5,6.7l7.7,42.4l7.8,141.3
	c0.1,1.1-0.3,2.2-0.9,3.2C228.2,654.3,224.1,656.3,219.7,656.1z"/>
<circle class="st5" cx="183.8" cy="345.7" r="24.6"/>
<path class="st6" d="M192.3,483.3c-10.7,0-23.9-6.3-39.5-18.7l-0.3-0.2l11-86.7l0.5,0c15.7-0.6,28.5,3.4,39.1,12.2l0.1,0.1l8.6,11
	l0,0.2l1.2,67.8l0,0.1c-2.3,6.3-7.4,11.1-13.8,13.2C197,483,194.6,483.3,192.3,483.3z"/>
<path class="st4" d="M208.1,523.8c-2.5,0-4.6-1.7-5.3-4l-15.1-57.1l-9.6,52c-0.5,2.9-3.2,4.8-6.1,4.4l-41.6-5.8
	c-3-0.4-5.1-3.2-4.6-6.1c0-0.3,0.1-0.7,0.2-1l21-62l-4.7-36.3c-1.9-14.9,8.6-28.6,23.5-30.5c0.8-0.1,1.6-0.2,2.4-0.2l0.4,0l20,48.3
	l3.2-12.7l5-27.4l0.7,0.4c14.3,8.3,22.9,23.8,22.1,40.4l-1.3,29l11.2,59.3c0.6,2.9-1.4,5.8-4.3,6.4l-16.2,3.1
	C208.8,523.8,208.5,523.8,208.1,523.8z"/>
<path class="st4" d="M216.9,343.6h-35.5l-0.4-5.1l-1.8,5.1h-5.5l-0.7-10.1l-3.6,10.1h-10.6v-0.5c0-14.6,11.9-26.5,26.5-26.5h5
	c14.6,0,26.5,11.9,26.5,26.5V343.6z"/>
<path class="st2" d="M797,695.9H1c-0.6,0-1-0.4-1-1s0.4-1,1-1h796c0.6,0,1,0.4,1,1S797.6,695.9,797,695.9z"/>
<path class="st6" d="M193.2,496.1c0,6.2,5,11.2,11.2,11.2c0.5,0,1.1,0,1.6-0.1c3,6.9,9.8,11.3,17.3,11.3l0,0
	c10.4,0,18.8-8.4,18.8-18.8v-16.3c0-4.2-3.4-5.6-7.6-5.6H212c-4.2,0-7.6,1.4-7.6,5.6v1.6C198.2,484.9,193.2,489.9,193.2,496.1z
	 M196.2,496.1c0-4.5,3.6-8.1,8.1-8.1v11.7c0,1.5,0.2,3.1,0.6,4.6c-0.2,0-0.4,0-0.6,0C199.9,504.2,196.2,500.6,196.2,496.1z"/>
<path class="st5" d="M202.2,493.4c-2.6-4.9-8.7-6.8-13.6-4.2c-0.5,0.3-1,0.6-1.5,1l-30-19.5l0.1,18.6l28.4,15.7
	c3.7,4.2,10.1,4.6,14.3,0.8C203.5,502.6,204.4,497.5,202.2,493.4L202.2,493.4z"/>
<path class="st4" d="M169.7,504.7c-1.2,0-2.3-0.5-3.2-1.3l-38.1-38.1c-2.5-2.5-3.5-6-2.7-9.4c3.3-14.3,11.2-48.4,14.6-56.8
	c2.5-6.3,7-11.6,12.9-15l0.1-0.1l12.1,2.2l1.1,37.2l-14.6,31.3l31,29.3c1.7,1.6,1.9,4.2,0.5,6l-10,12.9c-0.8,1-2,1.7-3.3,1.7
	C169.9,504.7,169.8,504.7,169.7,504.7z"/>
<ellipse class="st4" cx="223.2" cy="480.9" rx="14" ry="2"/>
</svg>
