<?xml version="1.0" encoding="utf-8"?>
<!-- Generator: Adobe Illustrator 24.0.2, SVG Export Plug-In . SVG Version: 6.00 Build 0)  -->
<svg version="1.1" id="ae74f2c5-6cdf-4f48-b15c-8987cf5fec69"
	 xmlns="http://www.w3.org/2000/svg" xmlns:xlink="http://www.w3.org/1999/xlink" x="0px" y="0px" viewBox="0 0 476 401.8"
	 style="enable-background:new 0 0 476 401.8;" xml:space="preserve">
<style type="text/css">
	.st0{fill:#A0616A;}
	.st1{fill:#2F2E41;}
	.st2{fill:#CCCCCC;}
	.st3{fill:#3F3D56;}
	.st4{opacity:0.1;enable-background:new    ;}
	.st5{fill:#FFFFFF;}
	.st6{fill:#E6E6E6;}
	.st7{fill:#FCC102;}
</style>
<path id="ad4b1b16-27d0-4c9f-840a-ee213421f5fc" class="st0" d="M253.6,119.6c-0.4,0.4-0.7,0.8-1.1,1.3l-49.6-1.8l-5.7-10.6
	l-17.2,6.5l8.2,19.8c1.4,3.3,4.7,5.3,8.3,4.9l56.1-6.2c3.5,4.6,10.1,5.4,14.7,1.9c4.6-3.5,5.4-10.1,1.9-14.7
	c-3.5-4.6-10.1-5.4-14.7-1.9C254.3,119,253.9,119.3,253.6,119.6L253.6,119.6z"/>
<circle class="st1" cx="158.7" cy="39" r="28.9"/>
<ellipse transform="matrix(0.7071 -0.7071 0.7071 0.7071 25.9523 96.755)" class="st1" cx="129.8" cy="17.1" rx="12" ry="9"/>
<ellipse transform="matrix(0.3928 -0.9196 0.9196 0.3928 99.2498 169.3349)" class="st1" cx="177.9" cy="9.5" rx="9" ry="12"/>
<path class="st2" d="M200.8,117.1l-22.2,9.9c-2.4,1.1-5.3,0-6.4-2.4c-0.1-0.2-0.2-0.4-0.2-0.7l-6.5-23.4c-3-6.8,0.1-14.7,6.9-17.6
	c6.7-3,14.6,0.1,17.6,6.8l13,20.4c1.4,2.2,0.8,5.2-1.5,6.7C201.2,116.9,201,117,200.8,117.1L200.8,117.1z"/>
<path class="st0" d="M98.2,214.9c5.8-1.3,9.4-7.1,8-12.9c-0.1-0.6-0.3-1.2-0.6-1.8l39.6-89.5l-22.7-5.7l-31.8,89.7
	c-5.3,2.7-7.4,9.2-4.7,14.5C88.4,213.7,93.4,216,98.2,214.9z"/>
<polygon class="st0" points="87.5,377 99,381.2 120.6,338.8 103.6,332.6 "/>
<path class="st1" d="M117.3,400l-36.2-13.2l0,0l5.1-14l0,0l22.2,8.1C116.1,383.7,120.1,392.3,117.3,400L117.3,400L117.3,400z"/>
<path class="st1" d="M114.7,352.6c-0.7,0-1.4-0.2-2-0.5l-13.2-6.3c-2.2-1.1-3.3-3.7-2.5-6l37.4-103.5c0.9-2.5,3.7-3.8,6.2-2.9
	c1,0.4,1.9,1.1,2.5,2.1l19.8,32.9c0.9,1.5,0.9,3.4,0.1,4.9l-43.9,76.8C118,351.7,116.4,352.6,114.7,352.6z"/>
<circle class="st0" cx="159.6" cy="45.9" r="24.6"/>
<path class="st2" d="M194.4,157.6l-43.5-12l-23.1-46.3c-3.6-7.2-0.7-16,6.5-19.6c2-1,4.3-1.5,6.5-1.5h34.6c3.6,0,7.1,1.3,9.7,3.7
	c9.3,8.3,28.8,32.3,9.4,75.2L194.4,157.6z"/>
<path class="st2" d="M139.9,126.7l-22-10.3c-2.4-1.1-3.4-4-2.3-6.4c0.1-0.2,0.2-0.4,0.3-0.6l13.4-20.2c3.2-6.7,11.2-9.5,17.8-6.3
	c6.6,3.2,9.5,11.1,6.4,17.8l-6.9,23.2c-0.8,2.5-3.4,4-6,3.2C140.4,126.9,140.1,126.8,139.9,126.7L139.9,126.7z"/>
<polygon class="st0" points="166.6,388.6 178.9,388.6 184.7,341.3 166.6,341.3 "/>
<path class="st1" d="M202.5,400l-38.5,0l0,0l0-14.9l0,0l23.6,0C195.8,385.1,202.5,391.8,202.5,400L202.5,400L202.5,400z"/>
<path class="st1" d="M171.2,370.6c-2.3,0-4.2-1.6-4.7-3.8c-3.5-16.6-21.8-101.7-36.1-145.5c-14.5-44.6,10.2-64.9,15.3-68.5
	c0.5-0.4,1-0.9,1.3-1.5l3.7-8.2c0.8-1.7,2.5-2.8,4.4-2.8h0c27.8,0.2,37.2,8.9,39.9,12.7c0.8,1.1,1.1,2.6,0.8,3.9l-17.6,72.6
	c-0.1,0.5-0.1,0.9-0.1,1.4l17.5,131.9c0.4,2.6-1.5,5.1-4.1,5.4c0,0-0.1,0-0.1,0l-19.6,2.3C171.6,370.6,171.4,370.6,171.2,370.6z"/>
<path class="st1" d="M133.8,30.5c5.6,3.9,12.3,5.9,19.1,5.9c-2.4,1.7-5.2,2.8-8.1,3.3c9.1,1.9,18.4,2,27.5,0.2c2-0.3,4-1,5.8-2
	c1.8-1,3.1-2.7,3.6-4.8c0.6-3.4-2.1-6.6-4.9-8.7c-8.7-6.4-19.8-8.7-30.2-6c-3.4,0.9-6.8,2.3-9,5.1s-2.8,6.9-0.8,9.7L133.8,30.5z"/>
<polygon class="st3" points="422.1,307.1 422.1,400.8 397.8,400.1 273.4,400.1 273.4,323.7 309.7,307.1 "/>
<polygon class="st4" points="422.1,307.1 422.1,307.4 413.4,313.2 397.8,323.7 273.4,323.7 309.7,307.1 "/>
<polygon class="st4" points="422.1,307.1 422.1,400.8 397.8,400.1 398,323.5 413.4,313.2 422,307.1 "/>
<polygon class="st5" points="389.3,317.2 313.6,317.2 319.2,314 391.8,314 "/>
<path id="f35e270b-7f5a-4111-9d26-c6e282c8c57d" class="st6" d="M475,401.8H1c-0.6,0-1-0.4-1-1s0.4-1,1-1h474c0.6,0,1,0.4,1,1
	S475.6,401.8,475,401.8z"/>
<path class="st3" d="M349.1,136.6h-82c-5,0-9-4-9-9v-89c0-5,4-9,9-9h82c5,0,9,4,9,9v89C358.1,132.6,354,136.6,349.1,136.6z
	 M267.1,31.6c-3.9,0-7,3.1-7,7v89c0,3.9,3.1,7,7,7h82c3.9,0,7-3.1,7-7v-89c0-3.9-3.1-7-7-7H267.1z"/>
<path class="st7" d="M283.6,66.6h-8c-2.5,0-4.5-2-4.5-4.5v-8c0-2.5,2-4.5,4.5-4.5h8c2.5,0,4.5,2,4.5,4.5v8
	C288.1,64.6,286.1,66.6,283.6,66.6z"/>
<path class="st2" d="M283.6,91.6h-8c-2.5,0-4.5-2-4.5-4.5v-8c0-2.5,2-4.5,4.5-4.5h8c2.5,0,4.5,2,4.5,4.5v8
	C288.1,89.6,286.1,91.6,283.6,91.6z"/>
<path class="st7" d="M342,61.8h-37.3c-1.7,0-3-1.3-3-3v-1.3c0-1.7,1.3-3,3-3H342c1.7,0,3,1.3,3,3v1.3C345,60.4,343.7,61.8,342,61.8z
	"/>
<path class="st2" d="M342,86.8h-37.3c-1.7,0-3-1.3-3-3v-1.3c0-1.7,1.3-3,3-3H342c1.7,0,3,1.3,3,3v1.3C345,85.4,343.7,86.8,342,86.8z
	"/>
<path class="st2" d="M283.6,116.6h-8c-2.5,0-4.5-2-4.5-4.5v-8c0-2.5,2-4.5,4.5-4.5h8c2.5,0,4.5,2,4.5,4.5v8
	C288.1,114.6,286.1,116.6,283.6,116.6z"/>
<path class="st2" d="M342,111.8h-37.3c-1.7,0-3-1.3-3-3v-1.3c0-1.7,1.3-3,3-3H342c1.7,0,3,1.3,3,3v1.3
	C345,110.4,343.7,111.8,342,111.8z"/>
<path class="st2" d="M520.7,430c-173.7,0.4-347.4,0.7-521,1.1l0.4-34.2c171.6,0.8,343.2,1.5,514.9,2.3
	c28.5-18.1,44.1-25.5,46.8-22.3C564.9,380.7,551.2,398.4,520.7,430z"/>
</svg>
