<?xml version="1.0" encoding="utf-8"?>
<!-- Generator: Adobe Illustrator 24.0.2, SVG Export Plug-In . SVG Version: 6.00 Build 0)  -->
<svg version="1.1" id="b143eb5c-1646-401d-af9e-18dec362a251"
	 xmlns="http://www.w3.org/2000/svg" xmlns:xlink="http://www.w3.org/1999/xlink" x="0px" y="0px" viewBox="0 0 914.8 687.6"
	 style="enable-background:new 0 0 914.8 687.6;" xml:space="preserve">
<style type="text/css">
	.st0{enable-background:new    ;}
	.st1{fill:#303030;}
	.st2{clip-path:url(#SVGID_2_);enable-background:new    ;}
	.st3{fill:#232323;}
	.st4{clip-path:url(#SVGID_4_);enable-background:new    ;}
	.st5{fill:#252525;}
	.st6{fill:#262626;}
	.st7{fill:#272727;}
	.st8{fill:#292929;}
	.st9{fill:#2A2A2A;}
	.st10{fill:#2C2C2C;}
	.st11{fill:#2D2D2D;}
	.st12{fill:#2E2E2E;}
	.st13{fill:#313131;}
	.st14{fill:#323232;}
	.st15{fill:#343434;}
	.st16{fill:#353535;}
	.st17{fill:#363636;}
	.st18{fill:#383838;}
	.st19{fill:#393939;}
	.st20{fill:#3A3A3A;}
	.st21{clip-path:url(#SVGID_6_);enable-background:new    ;}
	.st22{fill:#F7F7F7;stroke:#FFFFFF;stroke-width:81;stroke-miterlimit:10;}
	.st23{opacity:0.4;fill:#40E240;enable-background:new    ;}
	.st24{opacity:0.4;fill:#12911E;enable-background:new    ;}
	.st25{fill:#FCC102;}
	.st26{fill:#3F3D56;}
	.st27{opacity:0.1;enable-background:new    ;}
	.st28{fill:#C4A493;}
	.st29{fill:#FFB9B9;}
	.st30{fill:#2F2E41;}
	.st31{fill:#A0616A;}
	.st32{fill:#AF979D;}
	.st33{fill:#FFFFFF;}
	.st34{opacity:0.1;fill:#AF979D;enable-background:new    ;}
	.st35{fill:#F2F2F2;}
	.st36{fill:#00A651;}
	.st37{font-family:'AmericanTypewriter';}
	.st38{font-size:92.1688px;}
	.st39{font-size:78.2838px;}
	.st40{fill:#FFDE17;}
	.st41{font-size:97.1065px;}
</style>
<g>
	<g>
		<g class="st0">
			<g>
				
					<ellipse transform="matrix(1.857401e-03 -1 1 1.857401e-03 -595.3506 1528.4464)" class="st1" cx="468" cy="1062.5" rx="14.4" ry="51.9"/>
			</g>
			<g class="st0">
				<defs>
					<path id="SVGID_1_" class="st0" d="M519.9,1062.5c0-2.1-1.7-4.3-5.3-6.4l0.6-334.8c3.6,2.1,5.3,4.2,5.3,6.4
						C520.3,828.2,520.1,962.1,519.9,1062.5z"/>
				</defs>
				<clipPath id="SVGID_2_">
					<use xlink:href="#SVGID_1_"  style="overflow:visible;"/>
				</clipPath>
				<g class="st2">
					<path class="st3" d="M519.9,1062.5l0.6-334.8c0-2.1-1.7-4.3-5.3-6.4l-0.6,334.8C518.2,1058.2,519.9,1060.4,519.9,1062.5"/>
				</g>
			</g>
			<g class="st0">
				<defs>
					<path id="SVGID_3_" class="st0" d="M416.6,727.6c0-5.3,10.7-10.4,29.1-12.9c25.8-3.5,56.9-0.5,69.5,6.7l-0.6,334.8
						c-12.6-7.2-43.7-10.2-69.5-6.7c-18.4,2.5-29.1,7.6-29.1,12.9C416.2,961.9,416.5,828,416.6,727.6z"/>
				</defs>
				<clipPath id="SVGID_4_">
					<use xlink:href="#SVGID_3_"  style="overflow:visible;"/>
				</clipPath>
				<g class="st4">
					<path class="st3" d="M514.6,1056.2l0.6-334.8c-2.2-1.2-4.9-2.3-8-3.3l-0.6,334.8C509.7,1053.8,512.4,1054.9,514.6,1056.2"/>
					<path class="st5" d="M506.5,1052.9l0.6-334.8c-1.2-0.4-2.5-0.7-3.9-1.1l-0.6,334.8C504,1052.1,505.3,1052.5,506.5,1052.9"/>
					<path class="st6" d="M502.7,1051.8l0.6-334.8c-1.1-0.3-2.2-0.5-3.3-0.8l-0.6,334.8C500.5,1051.3,501.6,1051.5,502.7,1051.8"/>
					<path class="st7" d="M499.4,1051l0.6-334.8c-1-0.2-2-0.4-3.1-0.6l-0.6,334.8C497.3,1050.6,498.4,1050.8,499.4,1051"/>
					<path class="st8" d="M496.3,1050.4l0.6-334.8c-1-0.2-1.9-0.3-2.9-0.5l-0.6,334.8C494.3,1050.1,495.3,1050.2,496.3,1050.4"/>
					<path class="st9" d="M493.3,1049.9l0.6-334.8c-0.9-0.1-1.9-0.3-2.9-0.4l-0.6,334.8C491.4,1049.6,492.4,1049.8,493.3,1049.9"/>
					<path class="st10" d="M490.4,1049.5l0.6-334.8c-0.9-0.1-1.9-0.2-2.9-0.4l-0.6,334.8C488.5,1049.2,489.5,1049.4,490.4,1049.5"/>
					<path class="st11" d="M487.6,1049.1l0.6-334.8c-0.9-0.1-1.9-0.2-2.9-0.3l-0.6,334.8C485.7,1048.9,486.6,1049,487.6,1049.1"/>
					<path class="st12" d="M484.7,1048.8l0.6-334.8c-0.9-0.1-1.9-0.2-2.9-0.3l-0.6,334.8C482.8,1048.7,483.8,1048.7,484.7,1048.8"/>
					<path class="st1" d="M481.8,1048.6l0.6-334.8c-1-0.1-1.9-0.1-2.9-0.2l-0.6,334.8C479.9,1048.4,480.9,1048.5,481.8,1048.6"/>
					<path class="st13" d="M478.9,1048.4l0.6-334.8c-1-0.1-1.9-0.1-2.9-0.2l-0.6,334.8C477,1048.3,478,1048.3,478.9,1048.4"/>
					<path class="st14" d="M476,1048.2l0.6-334.8c-1,0-2-0.1-2.9-0.1l-0.6,334.8C474.1,1048.1,475,1048.2,476,1048.2"/>
					<path class="st15" d="M473.1,1048.1l0.6-334.8c-1,0-1.9,0-2.9-0.1l-0.6,334.8C471.1,1048.1,472.1,1048.1,473.1,1048.1"/>
					<path class="st16" d="M470.1,1048l0.6-334.8c-1,0-2,0-3,0l-0.6,334.8C468.2,1048,469.2,1048,470.1,1048"/>
					<path class="st17" d="M467.2,1048l0.6-334.8c-1,0-2,0-3.1,0l-0.6,334.8C465.1,1048,466.2,1048,467.2,1048"/>
					<path class="st18" d="M464.1,1048.1l0.6-334.8c-1.1,0-2.2,0.1-3.3,0.1l-0.6,334.8C461.9,1048.1,463,1048.1,464.1,1048.1"/>
					<path class="st19" d="M460.8,1048.2l0.6-334.8c-1.4,0.1-2.7,0.1-4.1,0.2l-0.6,334.8C458.1,1048.3,459.5,1048.2,460.8,1048.2"/>
					<path class="st20" d="M456.7,1048.3l0.6-334.8c-3.9,0.2-7.8,0.6-11.6,1.1c-2.8,0.4-5.5,0.8-7.9,1.3l-0.6,334.8
						c2.4-0.5,5.1-0.9,7.9-1.3C448.9,1049,452.8,1048.6,456.7,1048.3"/>
					<path class="st19" d="M437.2,1050.8l0.6-334.8c-1.8,0.4-3.5,0.8-5.1,1.2l-0.6,334.8C433.7,1051.5,435.4,1051.1,437.2,1050.8"/>
					<path class="st18" d="M432.1,1052l0.6-334.8c-1.2,0.3-2.4,0.7-3.4,1l-0.6,334.8C429.7,1052.6,430.9,1052.3,432.1,1052"/>
					<path class="st17" d="M428.7,1053l0.6-334.8c-0.9,0.3-1.8,0.6-2.6,0.9l-0.6,334.8C426.9,1053.5,427.8,1053.2,428.7,1053"/>
					<path class="st16" d="M426.1,1053.8l0.6-334.8c-0.7,0.3-1.4,0.6-2.1,0.8l-0.6,334.8C424.7,1054.4,425.4,1054.1,426.1,1053.8"/>
					<path class="st15" d="M424,1054.7l0.6-334.8c-0.6,0.3-1.2,0.5-1.7,0.8l-0.6,334.8C422.9,1055.2,423.4,1055,424,1054.7"/>
					<path class="st14" d="M422.3,1055.5l0.6-334.8c-0.5,0.3-1,0.5-1.4,0.8l-0.6,334.8C421.3,1056,421.8,1055.8,422.3,1055.5"/>
					<path class="st13" d="M420.9,1056.3l0.6-334.8c-0.4,0.3-0.8,0.5-1.2,0.8l-0.6,334.8C420,1056.8,420.4,1056.6,420.9,1056.3"/>
					<path class="st1" d="M419.6,1057.1l0.6-334.8c-0.4,0.3-0.7,0.5-1,0.8l-0.6,334.8C418.9,1057.6,419.3,1057.4,419.6,1057.1"/>
					<path class="st12" d="M418.6,1057.9l0.6-334.8c-0.3,0.3-0.6,0.5-0.9,0.8l-0.6,334.8C418,1058.4,418.3,1058.2,418.6,1057.9"/>
					<path class="st11" d="M417.7,1058.7l0.6-334.8c-0.3,0.3-0.5,0.6-0.7,0.8l-0.6,334.8C417.3,1059.2,417.5,1059,417.7,1058.7"/>
					<path class="st10" d="M417.1,1059.5l0.6-334.8c-0.2,0.3-0.4,0.6-0.5,0.9l-0.6,334.8C416.7,1060.1,416.8,1059.8,417.1,1059.5"/>
					<path class="st9" d="M416.5,1060.4l0.6-334.8c-0.1,0.3-0.3,0.6-0.3,0.9l-0.6,334.8C416.3,1061,416.4,1060.7,416.5,1060.4"/>
					<path class="st8" d="M416.2,1061.3l0.6-334.8c-0.1,0.3-0.1,0.6-0.1,1l-0.6,334.8C416,1061.9,416.1,1061.6,416.2,1061.3"/>
					<path class="st7" d="M416,1062.2l0.6-334.8c0,0,0,0.1,0,0.1l-0.6,334.8C416,1062.3,416,1062.3,416,1062.2"/>
				</g>
			</g>
			<g>
				
					<ellipse transform="matrix(1.857401e-03 -1 1 1.857401e-03 -259.9445 1194.9042)" class="st1" cx="468.6" cy="727.7" rx="14.4" ry="51.9"/>
			</g>
			<g class="st0">
				<defs>
					<path id="SVGID_5_" class="st0" d="M416,1062.4l0.6-334.8c0,2.1,1.7,4.3,5.3,6.4c12.6,7.2,43.7,10.2,69.5,6.7
						c18.4-2.5,29.1-7.6,29.1-12.9l-0.6,334.8c0,5.3-10.7,10.4-29.1,12.9c-25.8,3.5-56.9,0.5-69.5-6.7
						C417.7,1066.7,416,1064.5,416,1062.4z"/>
				</defs>
				<clipPath id="SVGID_6_">
					<use xlink:href="#SVGID_5_"  style="overflow:visible;"/>
				</clipPath>
				<g class="st21">
					<path class="st3" d="M416,1062.4l0.6-334.8c0,2.1,1.7,4.3,5.3,6.4c2.2,1.2,4.9,2.3,8,3.3l-0.6,334.8c-3.1-1-5.9-2.1-8-3.3
						C417.7,1066.7,416,1064.5,416,1062.4"/>
					<path class="st5" d="M429.4,1072l0.6-334.8c1.2,0.4,2.5,0.7,3.9,1.1l-0.6,334.8C431.9,1072.8,430.6,1072.4,429.4,1072"/>
					<path class="st6" d="M433.3,1073.1l0.6-334.8c1.1,0.3,2.2,0.5,3.3,0.8l-0.6,334.8C435.4,1073.7,434.3,1073.4,433.3,1073.1"/>
					<path class="st7" d="M436.6,1073.9l0.6-334.8c1,0.2,2,0.4,3.1,0.6l-0.6,334.8C438.6,1074.3,437.6,1074.1,436.6,1073.9"/>
					<path class="st8" d="M439.6,1074.5l0.6-334.8c1,0.2,1.9,0.3,2.9,0.5l-0.6,334.8C441.6,1074.8,440.6,1074.7,439.6,1074.5"/>
					<path class="st9" d="M442.6,1075l0.6-334.8c0.9,0.1,1.9,0.3,2.9,0.4l-0.6,334.8C444.5,1075.3,443.5,1075.1,442.6,1075"/>
					<path class="st10" d="M445.5,1075.4l0.6-334.8c0.9,0.1,1.9,0.2,2.9,0.4l-0.6,334.8C447.4,1075.7,446.4,1075.5,445.5,1075.4"/>
					<path class="st11" d="M448.4,1075.8L449,741c0.9,0.1,1.9,0.2,2.9,0.3l-0.6,334.8C450.3,1076,449.3,1075.9,448.4,1075.8"/>
					<path class="st12" d="M451.2,1076.1l0.6-334.8c0.9,0.1,1.9,0.2,2.9,0.3l-0.6,334.8C453.1,1076.3,452.2,1076.2,451.2,1076.1"/>
					<path class="st1" d="M454.1,1076.3l0.6-334.8c1,0.1,1.9,0.1,2.9,0.2l-0.6,334.8C456,1076.5,455.1,1076.4,454.1,1076.3"/>
					<path class="st13" d="M457,1076.5l0.6-334.8c1,0.1,1.9,0.1,2.9,0.2l-0.6,334.8C458.9,1076.6,458,1076.6,457,1076.5"/>
					<path class="st14" d="M459.9,1076.7l0.6-334.8c1,0,2,0.1,2.9,0.1l-0.6,334.8C461.9,1076.8,460.9,1076.7,459.9,1076.7"/>
					<path class="st15" d="M462.9,1076.8l0.6-334.8c1,0,1.9,0,2.9,0.1l-0.6,334.8C464.8,1076.8,463.8,1076.8,462.9,1076.8"/>
					<path class="st16" d="M465.8,1076.9l0.6-334.8c1,0,2,0,3,0l-0.6,334.8C467.8,1076.9,466.8,1076.9,465.8,1076.9"/>
					<path class="st17" d="M468.8,1076.9l0.6-334.8c1,0,2,0,3.1,0l-0.6,334.8C470.8,1076.9,469.8,1076.9,468.8,1076.9"/>
					<path class="st18" d="M471.8,1076.8l0.6-334.8c1.1,0,2.2-0.1,3.3-0.1l-0.6,334.8C474,1076.8,472.9,1076.8,471.8,1076.8"/>
					<path class="st19" d="M475.1,1076.8l0.6-334.8c1.4-0.1,2.7-0.1,4.1-0.2l-0.6,334.8C477.8,1076.6,476.5,1076.7,475.1,1076.8"/>
					<path class="st20" d="M479.2,1076.6l0.6-334.8c3.9-0.2,7.8-0.6,11.6-1.1c2.8-0.4,5.5-0.8,7.9-1.3l-0.6,334.8
						c-2.4,0.5-5.1,0.9-7.9,1.3C487,1076,483.1,1076.3,479.2,1076.6"/>
					<path class="st19" d="M498.7,1074.1l0.6-334.8c1.8-0.4,3.5-0.8,5.1-1.2l-0.6,334.8C502.2,1073.4,500.5,1073.8,498.7,1074.1"/>
					<path class="st18" d="M503.8,1073l0.6-334.8c1.2-0.3,2.4-0.7,3.4-1l-0.6,334.8C506.2,1072.3,505,1072.6,503.8,1073"/>
					<path class="st17" d="M507.3,1072l0.6-334.8c0.9-0.3,1.8-0.6,2.6-0.9l-0.6,334.8C509,1071.4,508.2,1071.7,507.3,1072"/>
					<path class="st16" d="M509.8,1071.1l0.6-334.8c0.7-0.3,1.4-0.6,2.1-0.8l-0.6,334.8C511.3,1070.5,510.6,1070.8,509.8,1071.1"/>
					<path class="st15" d="M511.9,1070.2l0.6-334.8c0.6-0.3,1.2-0.5,1.7-0.8l-0.6,334.8C513.1,1069.7,512.5,1070,511.9,1070.2"/>
					<path class="st14" d="M513.6,1069.4l0.6-334.8c0.5-0.3,1-0.5,1.4-0.8l-0.6,334.8C514.6,1068.9,514.1,1069.1,513.6,1069.4"/>
					<path class="st13" d="M515.1,1068.6l0.6-334.8c0.4-0.3,0.8-0.5,1.2-0.8l-0.6,334.8C515.9,1068.1,515.5,1068.4,515.1,1068.6"/>
					<path class="st1" d="M516.3,1067.8l0.6-334.8c0.4-0.3,0.7-0.5,1-0.8l-0.6,334.8C517,1067.3,516.7,1067.6,516.3,1067.8"/>
					<path class="st12" d="M517.3,1067l0.6-334.8c0.3-0.3,0.6-0.5,0.9-0.8l-0.6,334.8C517.9,1066.5,517.6,1066.8,517.3,1067"/>
					<path class="st11" d="M518.2,1066.2l0.6-334.8c0.3-0.3,0.5-0.6,0.7-0.8l-0.6,334.8C518.7,1065.7,518.4,1065.9,518.2,1066.2"/>
					<path class="st10" d="M518.9,1065.4l0.6-334.8c0.2-0.3,0.4-0.6,0.5-0.9l-0.6,334.8C519.3,1064.8,519.1,1065.1,518.9,1065.4"/>
					<path class="st9" d="M519.4,1064.5l0.6-334.8c0.1-0.3,0.3-0.6,0.3-0.9l-0.6,334.8C519.7,1063.9,519.6,1064.2,519.4,1064.5"/>
					<path class="st8" d="M519.8,1063.6l0.6-334.8c0.1-0.3,0.1-0.6,0.1-1l-0.6,334.8C519.9,1063,519.8,1063.3,519.8,1063.6"/>
					<path class="st7" d="M519.9,1062.7l0.6-334.8c0,0,0-0.1,0-0.1l-0.6,334.8C519.9,1062.6,519.9,1062.6,519.9,1062.7"/>
				</g>
			</g>
		</g>
	</g>
</g>
<title>voting</title>
<rect x="-52.7" class="st22" width="1020.7" height="706.8"/>
<image style="overflow:visible;" width="4896" height="2760" xlink:href="../../../../../Downloads/gunnar-ridderstrom-lBEcmBO0PQc-unsplash.jpg"  transform="matrix(0.2085 0 0 0.2551 -52.7369 0)">
</image>
<circle class="st23" cx="808.7" cy="270.5" r="24.4"/>
<circle class="st24" cx="293" cy="125.5" r="34.8"/>
<circle class="st24" cx="228.5" cy="142.1" r="24.4"/>
<path class="st25" d="M821,541.4c-22.9,17.2-29.3,47.4-29.3,47.4s30.8,2.3,53.7-14.9c22.9-17.2,29.3-47.4,29.3-47.4
	S843.9,524.2,821,541.4z"/>
<path class="st25" d="M834.8,550.1c-5.8,28-30.5,46.6-30.5,46.6s-15.1-26.9-9.3-54.9c5.8-28,30.5-46.6,30.5-46.6
	S840.7,522.1,834.8,550.1z"/>
<polygon class="st26" points="810.9,281.9 810.9,616.3 699.4,708.4 129.2,708.4 129.2,357.8 295.7,281.9 "/>
<polygon class="st27" points="815,260.6 815,262 775,288.8 703.5,336.5 133.3,336.5 299.7,260.6 "/>
<polygon class="st27" points="815,260.6 815,595 703.5,687.1 704.4,335.7 775,288.8 814.4,260.6 "/>
<polygon class="st25" points="664.8,306.6 317.5,306.6 343.4,292.1 676.1,292.1 "/>
<path d="M936.4,674.6c0,0,5.7,28.1,0.5,29.3c-5.2,1.2-30.7,0.8-37,2c-6.3,1.2-19.3-0.8-19.3-6.4s13.6-9.1,13.6-9.1
	s19.3-12.3,19.7-12.8C914.4,677.1,936.4,674.6,936.4,674.6z"/>
<path class="st28" d="M934.9,508.7c0,0-1.8,20.9-1.8,22.6s1.8,30.6,0,31.8s1.2,9.8,1.2,12.8c0,3,9.8,53.9,7.4,73.4
	c-2.5,19.5,3.7,17.7,1.8,19.6c-1.9,1.9-1.8,1.8-1.8,5.5s-19.6,6.7-19.6,6.7L900.7,546l11-40.4L934.9,508.7z"/>
<path class="st27" d="M933.2,508.7c0,0-1.8,20.9-1.8,22.6s1.8,30.6,0,31.8s1.2,9.8,1.2,12.8c0,3,9.8,53.9,7.4,73.4
	c-2.5,19.5,3.7,17.7,1.8,19.6c-1.9,1.9-1.8,1.8-1.8,5.5s-19.6,6.7-19.6,6.7L898.9,546l11-40.4L933.2,508.7z"/>
<path d="M937.6,683.2c0,0,6.1,22.1,0,23.2s-36.2-1.5-43.5-0.2c-7.4,1.2-22.6,1.5-22.6-4.1s16-9.1,16-9.1s22.6-12.3,23.2-12.8
	C911.2,679.5,937.6,683.2,937.6,683.2z"/>
<path class="st28" d="M938.7,484.3c0,0,7.4,17.7-1.2,26.9c-8.6,9.1-18.4,27.6-18.4,28.8c0,1.2,17.2,123.1,14.7,131
	c-2.5,7.9-1.8,12.8-1.2,14.1s-6.1,7.9-13.5,7.9s-18.4-5.5-19.6-10.4c-1.2-4.9,1.8-47.1,1.2-55.1s-3.7-19.6-4.9-22.1
	s-7.9-4.9-9.1-12.3c-1.2-7.4-11-101-7.9-104.1C881.8,485.8,938.7,484.3,938.7,484.3z"/>
<circle class="st29" cx="899.7" cy="322.7" r="20.9"/>
<path class="st29" d="M912.5,333.1c0,0-4.2,22.6-1.2,25.1c3,2.5-23.2,6.1-23.2,6.1s-3-30-3.7-33
	C883.7,328.3,912.5,333.1,912.5,333.1z"/>
<path class="st25" d="M879.2,362.4c0,0,7.4-21.4,37.4-15.3c0,0,5.5,1.8,3.7,3.7c-1.8,1.9-3.7,1.8-1.2,3.7c2.5,1.9,5.5,0,3.7,1.8
	c-1.8,1.8,16.5,12.8,15.3,33.7c-1.2,20.9,4.2,50.2,0,55.1c-4.2,4.9,3,26.3,1.8,30.6c-1.2,4.2,7.4,9.8,3.7,11.6
	c-3.7,1.8-69.7,12.8-71.6,0c-1.9-12.8-0.6-3.7-2.5-6.7c-1.9-3-2.5-8.6-1.2-15.3c1.2-6.7,4.2-23.2,3-29.3s0-57.6,3.7-63.7
	S879.2,362.4,879.2,362.4z"/>
<path class="st29" d="M897.2,511.8c0,0,9.1,34.9-2.5,34.9c-11.6,0-11-36.2-11-36.2L897.2,511.8z"/>
<path class="st30" d="M890.4,322.7c0,1.8,2.6,2.9,6.6,3.1l0,0c1.7,0.1,3.3,0.1,5-0.1c2.6-0.2,3.6,2.1,4,5.4
	c0.7,5.2-0.3,12.5,0.9,13.6c1.6,1.6,13.1,0,16.7-3.6c0.6-0.6,0.9-1.2,1-1.9c0.3-2.2,1.5-4.2,3.1-5.7c2.1-2.3,5.1-4.9,8.6-8.9
	c6.1-7.4,0-7.9-1.8-13.5s-4.9-7.4-4.9-11s-14.1-6.7-25.7-6.1c-11.6,0.6-9.1,15.3-9.1,15.3s-0.7,1.8-1.6,4c-1.1,2.9-2,5.8-2.7,8.8
	C890.5,322.2,890.4,322.5,890.4,322.7z"/>
<path class="st27" d="M891.4,371.7c0,0,20.9-1.2,22.6,29.3s1.2,59.4,1.2,60c0,0.7-8.6,58.8-16.5,58.8s-14.1-1.2-16-4.2
	c-1.9-3,4.9-47.1,4.9-47.1s3-46.5-1.8-61.3C881.2,392.5,880.5,373.5,891.4,371.7z"/>
<path class="st25" d="M889.9,368.6c0,0,20.9-1.2,22.6,29.3c1.8,30.6,1.2,59.4,1.2,60c0,0.7-8.6,58.8-16.5,58.8s-14.1-1.2-16-4.2
	c-1.9-3,4.9-47.1,4.9-47.1s3-46.5-1.8-61.3C879.6,389.4,878.8,370.4,889.9,368.6z"/>
<path class="st31" d="M564.8,118.3c0,0-9-25.7-15.6-17.6s10,21.6,10,21.6L564.8,118.3z"/>
<path class="st32" d="M607.6,93.2l-5.5,2c0,0-2.6,11.6-1.6,13.6c1,2,1.6,0.6,0,4.6s-6,14.6-6.6,16.2s-29.2-9.7-29.2-15.3
	c0,0-6,7-9,8.6c0,0,33.2,24.2,37.8,27.2c4.6,3,7,1.6,11-2s21.2-32.8,21.2-32.8L607.6,93.2z"/>
<path class="st33" d="M591.4,253.7c0,0,0.6,5.6,1.6,6c1,0.4,8.6,13.1,0,15.6c-8.6,2.6-13.6,1.6-15.6,2.6c-2,1-37.3,3-37.8-2.6
	c-0.6-5.6,17.2-6.6,17.2-6.6s16.2-10.6,18.6-16.2S591.4,253.7,591.4,253.7z"/>
<path class="st33" d="M695.2,282.1c0,0,12,20.6,9,23.2s-32.5,11.7-36.8,12.1c-5.6,0.6-9.6-4-5-6.6c4.6-2.6,14.1-13.1,14.1-16.6v-9
	L695.2,282.1z"/>
<path class="st30" d="M706.8,147.1c0,0,10.6,13.1-6,34.3l-27.7,35.3c0,0,17.2,27.2,17.6,41.3c0.4,14.1,4,11,5,17.2s5.6,3,2,7.6
	c-3.6,4.6-16.6,8.6-20.6,5c-2.8-2.6-4.2-6.2-4-10c0-2-7-13.6-7.6-17.2c-0.6-3.6-19.2-32.2-19.2-32.2s-6-17.2,1-26.7
	c7-9.5,11.7-23.2,11.7-23.2s-20.8,25.2-35.4,31.2c0,0-5.6,1-4.6,3.6c1,2.6,0,4-1.6,6.6c-1.6,2.6-12,31.8-15.6,39.3
	c-3.6,7.5-2,12.1-6,14.6c-4,2.6-22.2,0.6-22.2-2s2.6-9,4-12.6c1.5-3.6,13.6-44.3,12.6-51.4c-1-7.1,0.6-16.6,8-20.6
	c7.5-4,45.9-36.8,47.9-36.8S706.8,147.1,706.8,147.1z"/>
<circle class="st31" cx="605.6" cy="46.8" r="21.2"/>
<path class="st31" d="M622.7,48.8c0,0,6.6,11.6,14.6,13.1c8,1.5-21.2,24.7-21.2,24.7s-7-22.2-13.1-23.2
	C597,62.3,622.7,48.8,622.7,48.8z"/>
<path class="st32" d="M602,96.3c0,6.6,19.6,25.2,19.6,25.2l18.6,15.6c0,0,0.6,5.6,2.6,6s4.6,0.6,2.6,3.6c-2,3-7,9.6-2.6,10.6
	c1.3,0.2,2.8,0.3,4.1,0.4c1.2,0.1,2.7,0.1,4.2,0.2c3.7,0.1,8.4,0.2,13.5,0.2c1.5,0,2.9,0,4.4,0c19.1-0.3,41.2-2.6,39.3-9.8
	c-3-12.1-1-16.2-7.6-22.6c-6.6-6.5-17.2-29.2-17.2-29.2s-21.2-35.8-38.8-35.8l-3.7-1c-3.5-0.9-7.1,0.4-9.1,3.6
	c-3.6,5.4-9.1,13.5-12.4,16.1c-5,4-5.8,1.1-5.8,1.1S602,89.7,602,96.3z"/>
<path class="st31" d="M646.9,172.8c0,0-14.6,22.6-5.6,26.7c9,4,14.1-23.7,14.1-23.7L646.9,172.8z"/>
<path class="st30" d="M619.4,44.5c-0.8-0.1-1.1-1.1-1.2-1.9c-0.8-4.4-3.9-8.4-8.3-9.1c-1.7-0.2-3.3-0.1-4.9,0.4
	c-2.3,0.7-4.5,1.7-6.4,3.1c-0.9,0.9-2,1.6-3.1,2c-0.8,0.2-4.1,1.8-4.9,2c-1.8,0.6-3.1,2.3-4.9,2c-1.7-0.3-2.3-2.5-2.7-4.1
	c-0.7-3.9,1.6-9.7,3.8-13.1c1.7-2.5,4.6-3.9,7.4-4.9c3.3-1,6.8-1.7,10.3-2c4.7-0.6,9.6-0.9,14.1,0.6c4.5,1.5,8.6,5,9.5,9.7
	c0.2,1,0.2,2,0.4,2.9c0.6,2.3,2.1,4.4,3,6.6c1.3,3.3,1.2,7-0.3,10.3c-1.2,2.6-3.5,4.9-3,7.7l-3.9-3c-1.1-0.7-1.7-2-1.3-3.3l0.6-4.9
	c0.2-0.9,0.1-1.8-0.2-2.7C621.5,39.7,620.8,44.6,619.4,44.5z"/>
<path class="st34" d="M654.3,119.7l-4.8,19.7c4.8,0.2,11.2,0.2,17.9,0.1c1.7-5.1,3.3-10.4,4.6-15.3c4.6-18.2-3-45.9-7-58.9
	c-4-13.1-14.1-16.6-14.1-16.6c-4.1,1.5-8,3.5-11.6,6C632.7,59.2,654.3,119.7,654.3,119.7z"/>
<path class="st34" d="M650.3,118.7l-4.9,20.5c1.2,0.1,2.7,0.1,4.2,0.2c3.7,0.1,8.4,0.2,13.5,0.2c1.8-5.4,3.6-11,4.9-16.4
	c4.6-18.2-3-45.9-7-58.9s-12.8,1.2-12.8,1.2s3.6-8.6-3-4C638.6,66.2,650.3,118.7,650.3,118.7z"/>
<path class="st32" d="M650.5,66c0,0,10,3.6,14.1,16.6c4,13.1,11.6,40.8,7,58.9c-4.6,18.1-14.1,40.8-14.1,40.8s-9.6-7-13.1-5.6
	L654,137c0,0-21.6-60.5-15.1-65C642.4,69.5,646.3,67.5,650.5,66z"/>
<polygon class="st35" points="656.3,313.2 516.9,22.7 283.8,134.6 369.6,313.2 "/>
<rect x="341" y="166.1" transform="matrix(0.9016 -0.4326 0.4326 0.9016 -33.356 193.9937)" class="st26" width="137.3" height="8.5"/>
<rect x="373.8" y="234.3" transform="matrix(0.9016 -0.4326 0.4326 0.9016 -59.6668 214.8971)" class="st26" width="137.3" height="8.5"/>
<rect x="500" y="89.4" transform="matrix(0.9016 -0.4326 0.4326 0.9016 4.8394 234.1681)" class="st26" width="34.1" height="34.1"/>
<rect x="532.8" y="170.5" transform="matrix(0.9016 -0.4326 0.4326 0.9016 -27.0358 256.3374)" class="st26" width="34.1" height="34.1"/>
<polygon class="st25" points="527.1,62.4 514.5,98.4 497.4,92.4 495.1,99.1 518.8,107.3 533.8,64.7 "/>
<polygon class="st25" points="559.9,143.5 547.3,179.6 530.2,173.6 527.9,180.2 551.6,188.6 566.6,145.9 "/>
<g id="b6a4aa65-5bff-4dd4-a595-827386906092">
	
		<rect x="-50.8" y="505.5" transform="matrix(0.9779 -0.2089 0.2089 0.9779 -112.7449 7.9752)" class="st35" width="64.4" height="64.4"/>
	<path id="ac286760-ef31-4470-8aba-995faff60c3b" class="st29" d="M17.8,482.7c0,0-23.1,16.5-15.4,23.1c7.7,6.6,23.1-19.9,23.1-19.9
		L17.8,482.7z"/>
	<path id="ad0ee0d5-d520-47bd-bca9-706ef112ee3c" class="st29" d="M124.7,508c0,0-4.4,55.1-5.5,62.8s-2.2,77.1-4.4,84.8
		s-4.4,26.4-4.4,26.4H97.1c0,0,1.1-34.1-2.2-47.4c-3.3-13.3-2.2-49.5-2.2-49.5s-6.6-65-3.3-73.9C92.6,502.4,124.7,508,124.7,508z"/>
	<path id="a2d865fc-f989-4a0f-bdfe-5d1a04b5cb09" class="st30" d="M107.1,678.7c0,0,5.5,3.3,5.5,5.5s-1.1,7.7,0,9.9s8.8,11,4.4,13.2
		c-4.5,2.1-24.2,0-24.2,0s1.1-15.4,2.2-16.5s-1.1-12.2-1.1-12.2h13.3V678.7z"/>
	<path id="a5afd73e-dc2f-49f8-bb76-01b6bc8ff4ec" class="st29" d="M40.5,506.7c0,0-1.5,55.2-1.1,63c0.3,7.8-5.9,76.9-4.6,84.8
		s1.6,26.8,1.6,26.8l13.2,1.3c0,0,2.5-34,7.1-46.9s7.4-49.1,7.4-49.1s13.4-63.9,11-73.1C72.7,504.4,40.5,506.7,40.5,506.7z"/>
	<path id="bae9c969-98bd-41cd-ab49-dced4866e2f9" class="st30" d="M40.1,678.3c0,0-5.8,2.7-6,4.9c-0.2,2.2,0.3,7.8-1,9.8
		c-1.3,2-9.9,10-5.8,12.7s24.1,2.6,24.1,2.6s0.6-15.5-0.4-16.6c-1-1.1,2.3-11.9,2.3-11.9L40.1,678.3z"/>
	<path id="efa1face-c8d6-4f61-8a17-c81461288bfc" class="st30" d="M109.3,425.3c0,0,8.8,1.1,12.2,19.9c3.3,18.7,15.4,66.1,5.5,69.4
		c-9.9,3.3-39.6,9.9-40.7,7.7c-1.1-2.2-3.3-7.7-3.3-7.7s3.3,9.9-1.1,9.9c-4.5,0-47.4-6.6-46.3-9.9s3.3-27.6,3.3-27.6
		s6.6-40.7,13.2-47.4c3.9-3.7,5.9-8.9,5.5-14.3L109.3,425.3z"/>
	<path id="ba787e0e-2496-4127-9664-864bc1f1b460" class="st29" d="M125.8,416.5c0,0-14.3-3.3-16.5,1.1s5.5,11,8.8,11
		c3.3,0,8.8-3.3,8.8-3.3L125.8,416.5z"/>
	<circle id="af432612-84fe-4a80-a474-ad6710b59c23" class="st29" cx="96" cy="303" r="19.9"/>
	<path id="fc691572-079c-4ac7-a111-0c7206f484e6" class="st29" d="M92.8,317.4c0,0-3.3,15.4-1.1,15.4c2.2,0-16.5,9.9-16.5,9.9
		l-14.3-2.2l-4.4-6.6c0,0,23.1-15.4,23.1-24.2S92.8,317.4,92.8,317.4z"/>
	<path id="a377c2ac-5aad-4dd5-94e4-d6887260be3a" class="st25" d="M82.8,332.8c0,0,3.3-2.2,4.4-2.2H96c1.1,0,15.4,3.3,15.4,3.3
		l8.8,49.5c0,0-15.4,25.3-4.4,45.2c0,0-3.3-2.2-18.7-1.1s-43,4.4-44.1,4.4s-1.1-8.8,0-11c1.1-2.2-1.1-1.1-1.1-6.6
		c0-5.5-3.3-15.4-3.3-15.4l-15.4-56.2c0,0,19.9-11,23.1-9.9c3.2,1.1,13.2,4.4,15.4,3.3C74,335.1,82.8,332.8,82.8,332.8z"/>
	<path id="fd50713a-8150-4e39-832b-91f38638a5e4" class="st25" d="M108.2,335.1l3.3-1.1c0,0,6.6-1.1,14.3,5.5s36.4,26.4,36.4,26.4
		s11,8.8,7.7,18.7c-3.3,9.9-8.8,34.1-25.3,33c0,0-9.9,13.2-15.4,11c-5.5-2.1-9.9-11-6.6-12.2c3.3-1.1,12.2-12.2,12.2-12.2l-11-21
		h-3.3l-12.2-6.6V335.1z"/>
	<path id="a85ddca5-281c-4897-a8aa-82a4133bac02" class="st25" d="M42.1,341.7l-8.8,1.1c0,0-7.7,3.3-6.6,17.6
		c1.1,14.3-6.6,79.3-3.3,87c0,0-11,37.5-8.8,38.6c2.2,1.1,15.4,7.7,14.3,3.3C27.7,485,41,454.1,41,454.1s15.4-16.5,8.8-39.6v-18.7
		L42.1,341.7z"/>
	<path id="eb14ef5a-0bc4-48da-8b11-b0e113a7ef46" class="st30" d="M112.5,322.2l-14.1,3l-1.8-6.9l0.7,7.1l-22.5,4.9l-1-3.8l0.3,3.9
		l-14.5,3.1l-3.1-29.7c-3.2-12.2,8.5-25.2,20.6-28.3l5.4-1.5c8.9-2.3,25.2-0.2,27.6,8.7C106.2,298.6,99.3,315.8,112.5,322.2z"/>
</g>
<ellipse class="st36" cx="33.6" cy="88.7" rx="58.5" ry="63"/>
<text transform="matrix(0.7365 0 0 1 -9.3301 114.6943)" class="st33 st37 st38">V</text>
<text transform="matrix(0.7365 0 0 1 40.0908 114.6943)" class="st33 st37 st39">t</text>
<text transform="matrix(0.7365 0 0 1 63.1445 114.6943)" class="st40 st37 st41">.</text>
</svg>
